<?xml version="1.0" standalone="no"?>
<!DOCTYPE svg PUBLIC "-//W3C//DTD SVG 20010904//EN"
 "http://www.w3.org/TR/2001/REC-SVG-20010904/DTD/svg10.dtd">
<svg version="1.0" xmlns="http://www.w3.org/2000/svg"
 width="500.000000pt" height="500.000000pt" viewBox="0 0 500.000000 500.000000"
 preserveAspectRatio="xMidYMid meet">
<metadata>
Created by potrace 1.14, written by Peter Selinger 2001-2017
</metadata>
<g transform="translate(0.000000,500.000000) scale(0.100000,-0.100000)"
fill="#000000" stroke="none">
<path d="M2310 4524 c-179 -22 -368 -79 -597 -178 -211 -92 -267 -107 -403
-113 -110 -4 -198 9 -272 41 -15 7 -16 3 -12 -31 16 -108 89 -239 181 -325 86
-80 143 -82 323 -12 245 94 490 83 690 -33 40 -23 108 -80 174 -146 l109 -109
43 49 c24 26 43 51 44 55 1 21 156 135 236 174 204 100 394 100 661 0 67 -25
137 -46 156 -46 93 0 208 104 281 255 56 114 59 127 42 151 -13 17 -17 18 -48
6 -66 -27 -115 -35 -213 -34 -114 0 -223 27 -354 88 -188 88 -349 144 -516
180 -101 23 -149 27 -305 29 -102 2 -201 1 -220 -1z"/>
<path d="M1800 3853 c-38 -7 -162 -67 -217 -104 -84 -57 -183 -160 -215 -223
-91 -180 -89 -371 8 -564 l47 -93 -31 -67 c-74 -162 -104 -309 -104 -502 1
-234 60 -446 180 -640 109 -176 321 -371 497 -455 408 -196 892 -158 1249 97
210 150 370 361 454 598 50 142 66 239 66 400 0 203 -30 345 -110 519 l-35 75
41 80 c92 183 92 364 0 555 -95 197 -315 331 -545 331 -163 0 -306 -60 -425
-180 -73 -72 -150 -193 -150 -234 0 -32 -16 -15 -34 35 -42 114 -157 245 -271
306 -91 48 -194 73 -295 72 -47 -1 -96 -4 -110 -6z m243 -122 c129 -45 229
-148 272 -280 13 -40 16 -76 13 -146 -3 -79 -8 -101 -36 -157 -41 -83 -114
-157 -200 -199 -126 -62 -300 -50 -417 31 -62 42 -114 105 -149 179 -29 61
-31 74 -31 171 0 97 2 110 32 173 52 110 151 196 268 233 62 20 183 17 248 -5z
m1158 3 c112 -33 208 -118 261 -230 43 -91 50 -211 18 -304 -45 -133 -138
-225 -271 -270 -52 -18 -80 -21 -154 -18 -109 5 -177 34 -259 109 -282 257
-102 726 280 728 39 1 95 -6 125 -15z m-634 -680 c42 -26 58 -64 60 -137 2
-82 15 -100 126 -174 109 -72 189 -96 332 -97 124 -1 176 10 266 55 24 12 36
14 36 6 1 -7 13 -43 27 -80 61 -157 72 -389 26 -562 -73 -281 -284 -526 -553
-643 -224 -96 -530 -96 -754 0 -319 139 -534 431 -574 781 -16 137 -2 266 43
405 l32 98 58 -24 c212 -85 461 -38 633 120 64 59 65 61 65 111 0 123 91 195
177 141z"/>
<path d="M1890 3511 c-70 -23 -132 -75 -164 -138 -46 -91 -24 -206 52 -282
156 -155 425 -46 424 173 0 102 -48 182 -136 228 -43 22 -136 32 -176 19z
m143 -171 c41 -45 38 -101 -7 -146 -69 -69 -175 -26 -176 72 0 103 115 149
183 74z"/>
<path d="M2995 3504 c-90 -22 -150 -66 -188 -138 -28 -53 -29 -164 -3 -216 97
-188 346 -196 448 -13 69 123 11 295 -116 348 -37 16 -113 25 -141 19z m111
-168 c27 -27 34 -42 34 -74 0 -50 -29 -88 -79 -103 -112 -34 -188 131 -88 192
50 30 93 25 133 -15z"/>
<path d="M2447 2980 c-35 -42 -41 -79 -23 -151 17 -64 72 -179 87 -179 4 0 27
39 51 86 36 74 43 96 43 150 0 56 -3 66 -29 93 -41 43 -94 43 -129 1z"/>
<path d="M1870 2432 c0 -33 45 -107 79 -129 24 -16 49 -23 84 -23 83 0 137 47
158 138 l7 32 -164 0 c-151 0 -164 -1 -164 -18z"/>
<path d="M2355 2418 c18 -87 78 -138 160 -138 82 0 142 51 160 138 l7 32 -167
0 -167 0 7 -32z"/>
<path d="M2830 2430 c0 -36 26 -85 64 -118 33 -28 43 -32 96 -32 53 0 63 4 96
32 38 33 64 82 64 118 0 19 -6 20 -160 20 -154 0 -160 -1 -160 -20z"/>
<path d="M2110 2020 c0 -36 26 -85 64 -118 32 -28 44 -32 93 -32 42 0 65 6 90
23 35 23 73 88 73 125 0 22 -2 22 -160 22 -154 0 -160 -1 -160 -20z"/>
<path d="M2590 2022 c0 -33 45 -107 79 -129 24 -16 49 -23 84 -23 83 0 137 47
158 138 l7 32 -164 0 c-151 0 -164 -1 -164 -18z"/>
<path d="M2353 1635 c9 -55 43 -101 91 -124 54 -27 81 -26 136 2 49 24 90 83
90 130 l0 27 -161 0 -162 0 6 -35z"/>
<path d="M1999 828 c-46 -62 -110 -141 -143 -175 l-59 -63 130 0 130 0 67 98
c40 59 66 107 66 123 0 29 -73 129 -95 129 -7 0 -50 -51 -96 -112z"/>
<path d="M2431 873 c-30 -37 -69 -90 -86 -118 -40 -61 -57 -77 -115 -102 -25
-11 -54 -30 -64 -42 l-19 -21 354 0 354 1 -33 28 c-18 15 -50 33 -71 40 -43
12 -52 23 -167 179 -42 56 -82 102 -88 102 -7 0 -36 -30 -65 -67z"/>
<path d="M2857 898 c-71 -88 -71 -89 23 -221 l62 -87 131 0 131 0 -60 63 c-34
34 -96 109 -139 167 -76 101 -92 120 -107 120 -4 0 -22 -19 -41 -42z"/>
<path d="M992 694 c-14 -10 -22 -26 -22 -44 0 -59 9 -60 383 -60 l338 0 39 38
c31 29 39 42 34 60 l-6 22 -372 0 c-320 0 -375 -2 -394 -16z"/>
<path d="M3236 694 c-11 -29 -6 -40 36 -72 l42 -32 346 0 c256 0 349 3 358 12
20 20 15 86 -7 98 -13 6 -155 10 -394 10 -333 0 -376 -2 -381 -16z"/>
</g>
</svg>
